<?xml version="1.0" encoding="UTF-8" standalone="no"?>
<!DOCTYPE svg PUBLIC "-//W3C//DTD SVG 1.1//EN"
 "http://www.w3.org/Graphics/SVG/1.1/DTD/svg11.dtd">
<!-- Generated by graphviz version 2.47.0 (20210316.0004)
 -->
<!-- Title: dependencies Pages: 1 -->
<svg width="504pt" height="284pt"
 viewBox="0.00 0.00 504.00 284.00" xmlns="http://www.w3.org/2000/svg" xmlns:xlink="http://www.w3.org/1999/xlink">
<g id="graph0" class="graph" transform="scale(1 1) rotate(0) translate(4 280)">
<title>dependencies</title>
<polygon fill="white" stroke="transparent" points="-4,4 -4,-280 500,-280 500,4 -4,4"/>
<text text-anchor="start" x="227.01" y="-42.4" font-family="Times-12" font-weight="bold" font-size="14.00">Legend</text>
<polygon fill="#ffffb3" stroke="transparent" points="14,-10 14,-30 34,-30 34,-10 14,-10"/>
<text text-anchor="start" x="37.63" y="-15.4" font-family="Times-12" font-size="14.00"> &#160;Declarations</text>
<polygon fill="#8dd3c7" stroke="transparent" points="127,-10 127,-30 147,-30 147,-10 127,-10"/>
<text text-anchor="start" x="150.73" y="-15.4" font-family="Times-12" font-size="14.00"> &#160;Module</text>
<polygon fill="#80b1d3" stroke="transparent" points="213,-10 213,-30 233,-30 233,-10 213,-10"/>
<text text-anchor="start" x="236.78" y="-15.4" font-family="Times-12" font-size="14.00"> &#160;Bootstrap</text>
<polygon fill="#fdb462" stroke="transparent" points="310,-10 310,-30 330,-30 330,-10 310,-10"/>
<text text-anchor="start" x="333.67" y="-15.4" font-family="Times-12" font-size="14.00"> &#160;Providers</text>
<polygon fill="#fb8072" stroke="transparent" points="406,-10 406,-30 426,-30 426,-10 406,-10"/>
<text text-anchor="start" x="429.73" y="-15.4" font-family="Times-12" font-size="14.00"> &#160;Exports</text>
<g id="clust1" class="cluster">
<title>cluster_SharedModule</title>
<polygon fill="none" stroke="black" stroke-dasharray="1,5" points="16,-70 16,-268 480,-268 480,-70 16,-70"/>
</g>
<g id="clust7" class="cluster">
<title>cluster_SharedModule_exports</title>
<polygon fill="none" stroke="black" points="24,-208 24,-260 472,-260 472,-208 24,-208"/>
</g>
<g id="clust2" class="cluster">
<title>cluster_SharedModule_declarations</title>
<polygon fill="none" stroke="black" points="30,-78 30,-130 466,-130 466,-78 30,-78"/>
</g>
<!-- ModalComponent -->
<g id="node1" class="node">
<title>ModalComponent</title>
<polygon fill="#ffffb3" stroke="black" points="457.88,-122 340.12,-122 340.12,-86 457.88,-86 457.88,-122"/>
<text text-anchor="middle" x="399" y="-99.8" font-family="Times,serif" font-size="14.00">ModalComponent</text>
</g>
<!-- SharedModule -->
<g id="node4" class="node">
<title>SharedModule</title>
<polygon fill="#8dd3c7" stroke="black" points="320.42,-187 317.42,-191 296.42,-191 293.42,-187 221.58,-187 221.58,-151 320.42,-151 320.42,-187"/>
<text text-anchor="middle" x="271" y="-164.8" font-family="Times,serif" font-size="14.00">SharedModule</text>
</g>
<!-- ModalComponent&#45;&gt;SharedModule -->
<g id="edge1" class="edge">
<title>ModalComponent&#45;&gt;SharedModule</title>
<path fill="none" stroke="black" d="M419.4,-122.02C419.4,-139.37 419.4,-163 419.4,-163 419.4,-163 330.41,-163 330.41,-163"/>
<polygon fill="black" stroke="black" points="330.41,-159.5 320.41,-163 330.41,-166.5 330.41,-159.5"/>
</g>
<!-- TabComponent -->
<g id="node2" class="node">
<title>TabComponent</title>
<polygon fill="#ffffb3" stroke="black" points="322.6,-122 219.4,-122 219.4,-86 322.6,-86 322.6,-122"/>
<text text-anchor="middle" x="271" y="-99.8" font-family="Times,serif" font-size="14.00">TabComponent</text>
</g>
<!-- TabComponent&#45;&gt;SharedModule -->
<g id="edge2" class="edge">
<title>TabComponent&#45;&gt;SharedModule</title>
<path fill="none" stroke="black" d="M271,-122.11C271,-122.11 271,-140.99 271,-140.99"/>
<polygon fill="black" stroke="black" points="267.5,-140.99 271,-150.99 274.5,-140.99 267.5,-140.99"/>
</g>
<!-- TabsContainerComponent -->
<g id="node3" class="node">
<title>TabsContainerComponent</title>
<polygon fill="#ffffb3" stroke="black" points="201.75,-122 38.25,-122 38.25,-86 201.75,-86 201.75,-122"/>
<text text-anchor="middle" x="120" y="-99.8" font-family="Times,serif" font-size="14.00">TabsContainerComponent</text>
</g>
<!-- TabsContainerComponent&#45;&gt;SharedModule -->
<g id="edge3" class="edge">
<title>TabsContainerComponent&#45;&gt;SharedModule</title>
<path fill="none" stroke="black" d="M145.79,-122.02C145.79,-139.37 145.79,-163 145.79,-163 145.79,-163 211.51,-163 211.51,-163"/>
<polygon fill="black" stroke="black" points="211.51,-166.5 221.51,-163 211.51,-159.5 211.51,-166.5"/>
</g>
<!-- ModalComponent  -->
<g id="node5" class="node">
<title>ModalComponent </title>
<polygon fill="#fb8072" stroke="black" points="463.88,-252 342.12,-252 342.12,-216 463.88,-216 463.88,-252"/>
<text text-anchor="middle" x="403" y="-229.8" font-family="Times,serif" font-size="14.00">ModalComponent </text>
</g>
<!-- SharedModule&#45;&gt;ModalComponent  -->
<g id="edge4" class="edge">
<title>SharedModule&#45;&gt;ModalComponent </title>
<path fill="none" stroke="black" stroke-dasharray="5,2" d="M320.46,-175C349.62,-175 380.85,-175 380.85,-175 380.85,-175 380.85,-205.98 380.85,-205.98"/>
<polygon fill="black" stroke="black" points="377.35,-205.98 380.85,-215.98 384.35,-205.98 377.35,-205.98"/>
</g>
<!-- TabComponent  -->
<g id="node6" class="node">
<title>TabComponent </title>
<polygon fill="#fb8072" stroke="black" points="324.1,-252 217.9,-252 217.9,-216 324.1,-216 324.1,-252"/>
<text text-anchor="middle" x="271" y="-229.8" font-family="Times,serif" font-size="14.00">TabComponent </text>
</g>
<!-- SharedModule&#45;&gt;TabComponent  -->
<g id="edge5" class="edge">
<title>SharedModule&#45;&gt;TabComponent </title>
<path fill="none" stroke="black" stroke-dasharray="5,2" d="M271,-187.11C271,-187.11 271,-205.99 271,-205.99"/>
<polygon fill="black" stroke="black" points="267.5,-205.99 271,-215.99 274.5,-205.99 267.5,-205.99"/>
</g>
<!-- TabsContainerComponent  -->
<g id="node7" class="node">
<title>TabsContainerComponent </title>
<polygon fill="#fb8072" stroke="black" points="199.75,-252 32.25,-252 32.25,-216 199.75,-216 199.75,-252"/>
<text text-anchor="middle" x="116" y="-229.8" font-family="Times,serif" font-size="14.00">TabsContainerComponent </text>
</g>
<!-- SharedModule&#45;&gt;TabsContainerComponent  -->
<g id="edge6" class="edge">
<title>SharedModule&#45;&gt;TabsContainerComponent </title>
<path fill="none" stroke="black" stroke-dasharray="5,2" d="M221.6,-175C168.61,-175 91.96,-175 91.96,-175 91.96,-175 91.96,-205.98 91.96,-205.98"/>
<polygon fill="black" stroke="black" points="88.46,-205.98 91.96,-215.98 95.46,-205.98 88.46,-205.98"/>
</g>
</g>
</svg>
